<svg width="25" height="27" viewBox="0 0 25 27" fill="none" xmlns="http://www.w3.org/2000/svg">
<path d="M23.5 13.5V19.9583C23.5 22.3944 23.5 23.6112 22.6942 24.3681C21.8885 25.125 20.5933 25.125 18 25.125H4.9375C4.02582 25.125 3.15148 24.7848 2.50682 24.1792C1.86216 23.5736 1.5 22.7523 1.5 21.8958M23.5 13.5C23.5 15.9361 23.5 17.1528 22.6942 17.9097C21.8885 18.6667 20.5933 18.6667 18 18.6667H4.9375C4.02582 18.6667 3.15148 19.0069 2.50682 19.6125C1.86216 20.2181 1.5 21.0394 1.5 21.8958M23.5 13.5V7.04167C23.5 4.60558 23.5 3.38883 22.6942 2.63192C21.8885 1.875 20.5933 1.875 18 1.875H7C4.40675 1.875 3.1115 1.875 2.30575 2.63192C1.5 3.38883 1.5 4.60558 1.5 7.04167V21.8958" stroke="black" stroke-width="2"/>
<path d="M8.375 8.3335H16.625" stroke="black" stroke-width="2" stroke-linecap="round"/>
</svg>
