<svg width="31" height="29" viewBox="0 0 31 29" fill="none" xmlns="http://www.w3.org/2000/svg">
<path d="M15.5 0C12.4344 0 9.43763 0.85041 6.88867 2.44369C4.33971 4.03697 2.35303 6.30156 1.17987 8.95109C0.00671591 11.6006 -0.300236 14.5161 0.297835 17.3288C0.895906 20.1415 2.37214 22.7252 4.53985 24.753C6.70756 26.7809 9.4694 28.1619 12.4761 28.7214C15.4828 29.2809 18.5993 28.9937 21.4316 27.8962C24.2638 26.7988 26.6846 24.9403 28.3878 22.5558C30.0909 20.1712 31 17.3678 31 14.5C30.9953 10.6557 29.3608 6.97009 26.455 4.25176C23.5492 1.53342 19.6094 0.00435108 15.5 0ZM15.5 26.7692C12.906 26.7692 10.3703 26.0496 8.21349 24.7015C6.05667 23.3533 4.37564 21.4371 3.38297 19.1952C2.3903 16.9533 2.13057 14.4864 2.63663 12.1064C3.14269 9.72639 4.39181 7.54023 6.22603 5.82434C8.06025 4.10846 10.3972 2.93993 12.9413 2.46652C15.4855 1.99311 18.1225 2.23608 20.519 3.16471C22.9156 4.09334 24.9639 5.66591 26.405 7.68358C27.8462 9.70124 28.6154 12.0734 28.6154 14.5C28.6115 17.7529 27.2284 20.8715 24.7696 23.1716C22.3109 25.4717 18.9772 26.7656 15.5 26.7692ZM22.6538 14.5C22.6538 14.7958 22.5282 15.0795 22.3046 15.2887C22.081 15.4978 21.7778 15.6154 21.4615 15.6154H16.6923V20.0769C16.6923 20.3727 16.5667 20.6564 16.3431 20.8656C16.1195 21.0748 15.8162 21.1923 15.5 21.1923C15.1838 21.1923 14.8805 21.0748 14.6569 20.8656C14.4333 20.6564 14.3077 20.3727 14.3077 20.0769V15.6154H9.53847C9.22225 15.6154 8.91898 15.4979 8.69538 15.2887C8.47178 15.0795 8.34616 14.7958 8.34616 14.5C8.34616 14.2042 8.47178 13.9205 8.69538 13.7113C8.91898 13.5021 9.22225 13.3846 9.53847 13.3846H14.3077V8.92307C14.3077 8.62726 14.4333 8.34355 14.6569 8.13438C14.8805 7.9252 15.1838 7.80769 15.5 7.80769C15.8162 7.80769 16.1195 7.9252 16.3431 8.13438C16.5667 8.34355 16.6923 8.62726 16.6923 8.92307V13.3846H21.4615C21.7778 13.3846 22.081 13.5021 22.3046 13.7113C22.5282 13.9205 22.6538 14.2042 22.6538 14.5Z" fill="black"/>
</svg>
