<svg width="24" height="22" viewBox="0 0 24 22" fill="none" xmlns="http://www.w3.org/2000/svg">
<path d="M22.3238 0H20.4955C20.1553 0.00135009 19.8293 0.128646 19.5878 0.354444L10.2775 9.13C9.37598 8.75019 8.39937 8.55442 7.41185 8.55556C3.47306 8.55556 0.280029 11.5652 0.280029 15.2778C0.280029 18.9904 3.47306 22 7.41185 22C11.3506 22 14.5437 18.9904 14.5437 15.2778C14.5415 14.3525 14.3385 13.4375 13.9472 12.5889L15.0883 11.5133C15.3278 11.2857 15.4629 10.9784 15.4643 10.6578V9.77778C15.4646 9.53474 15.5672 9.30174 15.7496 9.13L16.0867 8.81222C16.269 8.64026 16.5161 8.54355 16.774 8.54333H19.0821C19.4402 8.54333 19.7305 8.26973 19.7305 7.93222V5.78111C19.7307 5.53808 19.8333 5.30508 20.0157 5.13333H20.0806C20.1905 4.99118 20.3612 4.90179 20.5474 4.88889H22.9722C23.3303 4.88889 23.6205 4.61528 23.6205 4.27778V1.22222C23.6205 0.547207 23.04 0 22.3238 0ZM6.03736 19.0178C4.60507 19.0178 3.44397 17.9234 3.44397 16.5733C3.44397 15.2233 4.60507 14.1289 6.03736 14.1289C7.46965 14.1289 8.63074 15.2233 8.63074 16.5733C8.63074 17.2216 8.35751 17.8434 7.87116 18.3018C7.3848 18.7602 6.72517 19.0178 6.03736 19.0178Z" fill="white"/>
</svg>
