<svg width="54" height="58" viewBox="0 0 54 58" fill="none" xmlns="http://www.w3.org/2000/svg">
<path d="M8.1 29C8.1 28.2309 7.81554 27.4932 7.30919 26.9494C6.80284 26.4055 6.11608 26.1 5.4 26.1H2.7C1.98392 26.1 1.29716 26.4055 0.790812 26.9494C0.284463 27.4932 0 28.2309 0 29C0 29.7691 0.284463 30.5068 0.790812 31.0506C1.29716 31.5945 1.98392 31.9 2.7 31.9H5.4C6.11608 31.9 6.80284 31.5945 7.30919 31.0506C7.81554 30.5068 8.1 29.7691 8.1 29ZM9.828 43.5L7.911 45.559C7.40812 46.1023 7.12586 46.8374 7.12586 47.6035C7.12586 48.3696 7.40812 49.1047 7.911 49.648C8.41688 50.1881 9.1012 50.4913 9.8145 50.4913C10.5278 50.4913 11.2121 50.1881 11.718 49.648L13.635 47.589C14.0773 47.0342 14.3085 46.3206 14.2822 45.5907C14.256 44.8609 13.9743 44.1685 13.4934 43.6521C13.0126 43.1356 12.368 42.833 11.6884 42.8048C11.0089 42.7766 10.3445 43.0249 9.828 43.5ZM27 8.7C27.7161 8.7 28.4028 8.39446 28.9092 7.85061C29.4155 7.30675 29.7 6.56913 29.7 5.8V2.9C29.7 2.13087 29.4155 1.39325 28.9092 0.84939C28.4028 0.305535 27.7161 0 27 0C26.2839 0 25.5972 0.305535 25.0908 0.84939C24.5845 1.39325 24.3 2.13087 24.3 2.9V5.8C24.3 6.56913 24.5845 7.30675 25.0908 7.85061C25.5972 8.39446 26.2839 8.7 27 8.7ZM42.282 15.486C42.9903 15.4828 43.6691 15.1808 44.172 14.645L46.089 12.586C46.3716 12.326 46.6012 12.0061 46.7633 11.6463C46.9253 11.2865 47.0164 10.8946 47.0308 10.4953C47.0451 10.0959 46.9825 9.69761 46.8467 9.32546C46.711 8.95332 46.5051 8.61533 46.242 8.33271C45.9788 8.0501 45.6642 7.82895 45.3177 7.68315C44.9712 7.53736 44.6004 7.47006 44.2286 7.48548C43.8567 7.50091 43.4919 7.59873 43.1569 7.7728C42.8219 7.94686 42.524 8.19342 42.282 8.497L40.5 10.556C39.9971 11.0994 39.7149 11.8344 39.7149 12.6005C39.7149 13.3666 39.9971 14.1017 40.5 14.645C40.976 15.1536 41.6113 15.4534 42.282 15.486ZM9.882 14.645C10.3849 15.1808 11.0637 15.4828 11.772 15.486C12.1273 15.4882 12.4796 15.4151 12.8085 15.2707C13.1375 15.1264 13.4367 14.9138 13.689 14.645C14.1919 14.1017 14.4741 13.3666 14.4741 12.6005C14.4741 11.8344 14.1919 11.0994 13.689 10.556L11.772 8.497C11.522 8.2247 11.2246 8.00796 10.8966 7.85913C10.5687 7.71031 10.2166 7.63233 9.86059 7.62963C9.50457 7.62694 9.15154 7.69959 8.82167 7.84344C8.49179 7.98729 8.19152 8.19951 7.938 8.468C7.68448 8.73649 7.48268 9.05598 7.34412 9.40823C7.20557 9.76049 7.13296 10.1386 7.13045 10.521C7.12539 11.2933 7.40616 12.0361 7.911 12.586L9.882 14.645ZM51.3 26.1H48.6C47.8839 26.1 47.1972 26.4055 46.6908 26.9494C46.1845 27.4932 45.9 28.2309 45.9 29C45.9 29.7691 46.1845 30.5068 46.6908 31.0506C47.1972 31.5945 47.8839 31.9 48.6 31.9H51.3C52.0161 31.9 52.7028 31.5945 53.2092 31.0506C53.7155 30.5068 54 29.7691 54 29C54 28.2309 53.7155 27.4932 53.2092 26.9494C52.7028 26.4055 52.0161 26.1 51.3 26.1ZM44.172 43.5C43.659 43.1935 43.0671 43.075 42.4857 43.1623C41.9044 43.2495 41.3654 43.5379 40.9504 43.9837C40.5353 44.4295 40.2668 45.0085 40.1856 45.6328C40.1043 46.2572 40.2147 46.893 40.5 47.444L42.417 49.503C42.9229 50.0431 43.6072 50.3463 44.3205 50.3463C45.0338 50.3463 45.7181 50.0431 46.224 49.503C46.7269 48.9596 47.0091 48.2246 47.0091 47.4585C47.0091 46.6924 46.7269 45.9574 46.224 45.414L44.172 43.5ZM27 13.05C24.0629 13.05 21.1919 13.9855 18.7498 15.7381C16.3077 17.4907 14.4044 19.9817 13.2804 22.8962C12.1564 25.8107 11.8623 29.0177 12.4353 32.1117C13.0083 35.2057 14.4227 38.0477 16.4995 40.2784C18.5763 42.509 21.2223 44.0281 24.1029 44.6435C26.9835 45.259 29.9694 44.9431 32.6828 43.7359C35.3963 42.5287 37.7156 40.4843 39.3473 37.8613C40.9791 35.2384 41.85 32.1546 41.85 29C41.8429 24.7722 40.276 20.7197 37.4927 17.7301C34.7093 14.7406 30.9363 13.0577 27 13.05ZM27 39.15C25.131 39.15 23.3039 38.5547 21.7499 37.4394C20.1958 36.3241 18.9846 34.7389 18.2693 32.8842C17.5541 31.0296 17.3669 28.9887 17.7316 27.0198C18.0962 25.0509 18.9962 23.2424 20.3178 21.8229C21.6394 20.4034 23.3233 19.4367 25.1564 19.045C26.9895 18.6534 28.8896 18.8544 30.6164 19.6226C32.3431 20.3909 33.819 21.6918 34.8574 23.361C35.8958 25.0301 36.45 26.9925 36.45 29C36.45 31.6919 35.4544 34.2736 33.6822 36.1771C31.9099 38.0806 29.5063 39.15 27 39.15ZM27 49.3C26.2839 49.3 25.5972 49.6055 25.0908 50.1494C24.5845 50.6932 24.3 51.4309 24.3 52.2V55.1C24.3 55.8691 24.5845 56.6068 25.0908 57.1506C25.5972 57.6945 26.2839 58 27 58C27.7161 58 28.4028 57.6945 28.9092 57.1506C29.4155 56.6068 29.7 55.8691 29.7 55.1V52.2C29.7 51.4309 29.4155 50.6932 28.9092 50.1494C28.4028 49.6055 27.7161 49.3 27 49.3Z" fill="black"/>
</svg>
